{
  "extensionsUsed": [
    "KHR_materials_unlit"
  ],
  "asset": {
    "generator": "UniGLTF-1.27",
    "version": "2.0"
  },
  "buffers": [
    {
      "uri": "stone_tallE_data.bin",
      "byteLength": 2888
    }
  ],
  "bufferViews": [
    {
      "buffer": 0,
      "byteOffset": 0,
      "byteLength": 912,
      "target": 34962
    },
    {
      "buffer": 0,
      "byteOffset": 912,
      "byteLength": 912,
      "target": 34962
    },
    {
      "buffer": 0,
      "byteOffset": 1824,
      "byteLength": 608,
      "target": 34962
    },
    {
      "buffer": 0,
      "byteOffset": 2432,
      "byteLength": 396,
      "target": 34963
    },
    {
      "buffer": 0,
      "byteOffset": 2828,
      "byteLength": 60,
      "target": 34963
    }
  ],
  "accessors": [
    {
      "bufferView": 0,
      "byteOffset": 0,
      "type": "VEC3",
      "componentType": 5126,
      "count": 76,
      "max": [
        0.228097215,
        0.443784,
        0.263383985
      ],
      "min": [
        -0.228097215,
        0,
        -0.263383985
      ],
      "normalized": false
    },
    {
      "bufferView": 1,
      "byteOffset": 0,
      "type": "VEC3",
      "componentType": 5126,
      "count": 76,
      "normalized": false
    },
    {
      "bufferView": 2,
      "byteOffset": 0,
      "type": "VEC2",
      "componentType": 5126,
      "count": 76,
      "normalized": false
    },
    {
      "bufferView": 3,
      "byteOffset": 0,
      "type": "SCALAR",
      "componentType": 5125,
      "count": 99,
      "normalized": false
    },
    {
      "bufferView": 4,
      "byteOffset": 0,
      "type": "SCALAR",
      "componentType": 5125,
      "count": 15,
      "normalized": false
    }
  ],
  "materials": [
    {
      "name": "stone",
      "pbrMetallicRoughness": {
        "baseColorFactor": [
          0.721568644,
          0.8862745,
          0.9098039,
          1
        ],
        "metallicFactor": 1,
        "roughnessFactor": 1
      },
      "doubleSided": false,
      "alphaMode": "OPAQUE"
    },
    {
      "name": "_defaultMat",
      "pbrMetallicRoughness": {
        "baseColorFactor": [
          1,
          1,
          1,
          1
        ],
        "metallicFactor": 1,
        "roughnessFactor": 1
      },
      "doubleSided": false,
      "alphaMode": "OPAQUE"
    }
  ],
  "meshes": [
    {
      "name": "Mesh stone_tallE",
      "primitives": [
        {
          "mode": 4,
          "indices": 3,
          "attributes": {
            "POSITION": 0,
            "NORMAL": 1,
            "TEXCOORD_0": 2
          },
          "material": 0
        },
        {
          "mode": 4,
          "indices": 4,
          "attributes": {
            "POSITION": 0,
            "NORMAL": 1,
            "TEXCOORD_0": 2
          },
          "material": 1
        }
      ]
    }
  ],
  "nodes": [
    {
      "children": [
        1
      ],
      "name": "tmpParent",
      "translation": [
        0,
        0,
        0
      ],
      "rotation": [
        0,
        0,
        0,
        1
      ],
      "scale": [
        1,
        1,
        1
      ]
    },
    {
      "name": "stone_tallE",
      "translation": [
        0,
        -0.05,
        0
      ],
      "rotation": [
        0,
        0,
        0,
        1
      ],
      "scale": [
        1,
        1,
        1
      ],
      "mesh": 0
    }
  ],
  "scenes": [
    {
      "nodes": [
        1
      ]
    }
  ],
  "scene": 0
}